<svg style="position: absolute; width: 0; height: 0; overflow: hidden;" version="1.1" xmlns="http://www.w3.org/2000/svg" xmlns:xlink="http://www.w3.org/1999/xlink">
<defs>
<symbol id="icon-eye" viewBox="0 0 24 24">
<title>eye</title>
<path class="path1" d="M12 3q1.633 0 3.176 0.496t2.707 1.289 2.191 1.754 1.727 1.922 1.211 1.754 0.754 1.285l0.234 0.5q-0.055 0.117-0.148 0.316t-0.441 0.813-0.742 1.211-1.039 1.406-1.332 1.508-1.629 1.41-1.93 1.207-2.223 0.813-2.516 0.316q-1.633 0-3.176-0.496t-2.707-1.285-2.191-1.742-1.727-1.91-1.211-1.746-0.754-1.289l-0.234-0.492q0.055-0.117 0.148-0.316t0.441-0.816 0.742-1.215 1.039-1.414 1.332-1.516 1.629-1.414 1.93-1.215 2.223-0.816 2.516-0.316zM12 5q-1.094 0-2.148 0.289t-1.902 0.746-1.656 1.105-1.398 1.277-1.145 1.352-0.883 1.238-0.617 1.031q0.289 0.508 0.617 1.020t0.883 1.227 1.145 1.336 1.398 1.262 1.656 1.094 1.902 0.738 2.148 0.285 2.148-0.289 1.902-0.742 1.656-1.098 1.398-1.27 1.145-1.344 0.883-1.234 0.617-1.023q-0.289-0.508-0.617-1.023t-0.883-1.234-1.145-1.344-1.398-1.27-1.656-1.098-1.902-0.742-2.148-0.289zM12 8q1.656 0 2.828 1.172t1.172 2.828-1.172 2.828-2.828 1.172-2.828-1.172-1.172-2.828 1.172-2.828 2.828-1.172zM12 10q-0.828 0-1.414 0.586t-0.586 1.414 0.586 1.414 1.414 0.586 1.414-0.586 0.586-1.414-0.586-1.414-1.414-0.586z"></path>
</symbol>
<symbol id="icon-search" viewBox="0 0 24 24">
<title>search</title>
<path class="path1" d="M10 1q1.828 0 3.496 0.715t2.871 1.918 1.918 2.871 0.715 3.496q0 1.57-0.512 3.008t-1.457 2.609l5.68 5.672q0.289 0.289 0.289 0.711 0 0.43-0.285 0.715t-0.715 0.285q-0.422 0-0.711-0.289l-5.672-5.68q-1.172 0.945-2.609 1.457t-3.008 0.512q-1.828 0-3.496-0.715t-2.871-1.918-1.918-2.871-0.715-3.496 0.715-3.496 1.918-2.871 2.871-1.918 3.496-0.715zM10 3q-1.422 0-2.719 0.555t-2.234 1.492-1.492 2.234-0.555 2.719 0.555 2.719 1.492 2.234 2.234 1.492 2.719 0.555 2.719-0.555 2.234-1.492 1.492-2.234 0.555-2.719-0.555-2.719-1.492-2.234-2.234-1.492-2.719-0.555z"></path>
</symbol>
<symbol id="icon-circle" viewBox="0 0 24 24">
<title>circle</title>
<circle cx="12" cy="12" r="8" stroke-width="2"/>
</symbol>
<symbol id="icon-cross2" viewBox="0 0 24 24">
<title>cross</title>
<path class="path1" d="M 4 4 L 20 20 M 4 20 L 20 4" stroke-width="2" stroke-linecap="round"/>
</symbol>
</defs>
</svg>
